<?xml version="1.0" encoding="UTF-8"?>
<svg width="50px" height="50px" viewBox="0 0 50 50" version="1.1" xmlns="http://www.w3.org/2000/svg" xmlns:xlink="http://www.w3.org/1999/xlink">
    <title>配置</title>
    <defs>
        <filter id="filter-1">
            <feColorMatrix in="SourceGraphic" type="matrix" values="0 0 0 0 1.000000 0 0 0 0 1.000000 0 0 0 0 1.000000 0 0 0 1.000000 0"></feColorMatrix>
        </filter>
    </defs>
    <g id="首页" stroke="none" stroke-width="1" fill="none" fill-rule="evenodd">
        <g id="Aragorn" transform="translate(-140.000000, -82.000000)">
            <g id="上传器配置" transform="translate(93.000000, 25.000000)">
                <g id="profile-card" transform="translate(0.000000, 42.000000)">
                    <g id="配置" transform="translate(47.000000, 15.000000)" filter="url(#filter-1)">
                        <g>
                            <rect id="矩形" fill="#000000" fill-rule="nonzero" opacity="0" x="0" y="0" width="50" height="50"></rect>
                            <path d="M23.6947445,6.53249606 C25.1469719,5.82250131 26.853167,5.82250131 28.3053944,6.53249606 L42.1235257,13.3322854 C43.88486,14.1934024 44.9990664,15.9616327 45,17.8972106 L45,34.098842 C44.9990627,36.0325914 43.8869334,37.7994783 42.1281317,38.6615006 L28.3100004,45.46129 C26.8508424,46.17957 25.1331753,46.17957 23.6740173,45.46129 L9.85128,38.6592341 C8.09456175,37.7897783 6.9899475,36.0159258 7.00006897,34.0807092 L7.00006897,17.8972106 C7.00107621,15.9634612 8.11320553,14.1965744 9.87200719,13.334552 L23.6947445,6.53249606 Z M10.4523305,18.540924 L10.4523305,34.0920422 C10.4480208,34.736719 10.8145857,35.3283421 11.3989107,35.6197282 L24.272803,41.9548652 L24.272803,25.3407134 L10.4546717,18.540924 L10.4523305,18.540924 Z M41.5431642,18.540924 L27.7250329,25.3407134 L27.7250329,41.9457989 L40.5874101,35.6174616 C41.0962448,35.3689861 41.448424,34.8901741 41.529346,34.3368346 L41.5454672,34.098842 L41.5454672,18.540924 L41.5431642,18.540924 Z M26.7692788,9.57653506 C26.2860447,9.34086974 25.7187003,9.34086974 25.2354662,9.57653506 L12.5964821,15.7915425 L26.0000694,22.3850716 L39.4013538,15.7892759 L26.7692788,9.57653506 Z" id="形状" fill="#979797" fill-rule="nonzero"></path>
                        </g>
                    </g>
                </g>
            </g>
        </g>
    </g>
</svg>